HIERARCHY
ROOT Hips
{
  OFFSET 0.0 0.0 0.0
  CHANNELS 6 Xposition Yposition Zposition Zrotation Yrotation Xrotation
  JOINT LHipJoint
  {
    OFFSET 0.0 0.0 0.0
    CHANNELS 3 Zrotation Yrotation Xrotation
    JOINT LeftUpLeg
    {
      OFFSET 1.363059998 -1.794630051 0.839290023
      CHANNELS 3 Zrotation Yrotation Xrotation
      JOINT LeftLeg
      {
        OFFSET 2.448110104 -6.726130009 0.0
        CHANNELS 3 Zrotation Yrotation Xrotation
        JOINT LeftFoot
        {
          OFFSET 2.562200069 -7.039589882 0.0
          CHANNELS 3 Zrotation Yrotation Xrotation
          JOINT LeftToeBase
          {
            OFFSET 0.157639995 -0.433109999 2.322550058
            CHANNELS 3 Zrotation Yrotation Xrotation
            End Site
            {
              OFFSET 0.0 -0.0 1.189659953
            }
          }
        }
      }
    }
  }
  JOINT RHipJoint
  {
    OFFSET 0.0 0.0 0.0
    CHANNELS 3 Zrotation Yrotation Xrotation
    JOINT RightUpLeg
    {
      OFFSET -1.305520058 -1.794630051 0.839290023
      CHANNELS 3 Zrotation Yrotation Xrotation
      JOINT RightLeg
      {
        OFFSET -2.54253006 -6.985549927 0.0
        CHANNELS 3 Zrotation Yrotation Xrotation
        JOINT RightFoot
        {
          OFFSET -2.568259954 -7.056230068 0.0
          CHANNELS 3 Zrotation Yrotation Xrotation
          JOINT RightToeBase
          {
            OFFSET -0.164729998 -0.452589989 2.363149881
            CHANNELS 3 Zrotation Yrotation Xrotation
            End Site
            {
              OFFSET -0.0 -0.0 1.21081996
            }
          }
        }
      }
    }
  }
  JOINT LowerBack
  {
    OFFSET 0.0 0.0 0.0
    CHANNELS 3 Zrotation Yrotation Xrotation
    JOINT Spine
    {
      OFFSET 0.028270001 2.035589933 -0.193379998
      CHANNELS 3 Zrotation Yrotation Xrotation
      JOINT Spine1
      {
        OFFSET 0.05672 2.04885006 -0.042750001
        CHANNELS 3 Zrotation Yrotation Xrotation
        JOINT Neck
        {
          OFFSET 0.0 0.0 0.0
          CHANNELS 3 Zrotation Yrotation Xrotation
          JOINT Neck1
          {
            OFFSET -0.054170001 1.74624002 0.172020003
            CHANNELS 3 Zrotation Yrotation Xrotation
            JOINT Head
            {
              OFFSET 0.10407 1.761360049 -0.123970002
              CHANNELS 3 Zrotation Yrotation Xrotation
              End Site
              {
                OFFSET 0.0372 1.770439982 -0.062410001
              }
            }
          }
        }
        JOINT LeftShoulder
        {
          OFFSET 0.0 0.0 0.0
          CHANNELS 3 Zrotation Yrotation Xrotation
          JOINT LeftArm
          {
            OFFSET 3.362410069 1.200889945 -0.311210006
            CHANNELS 3 Zrotation Yrotation Xrotation
            JOINT LeftForeArm
            {
              OFFSET 4.982999802 -0.0 -0.0
              CHANNELS 3 Zrotation Yrotation Xrotation
              JOINT LeftHand
              {
                OFFSET 3.483560085 -0.0 -0.0
                CHANNELS 3 Zrotation Yrotation Xrotation
                JOINT LeftFingerBase
                {
                  OFFSET 0.0 0.0 0.0
                  CHANNELS 3 Zrotation Yrotation Xrotation
                  JOINT LeftHandIndex1
                  {
                    OFFSET 0.715260029 -0.0 -0.0
                    CHANNELS 3 Zrotation Yrotation Xrotation
                    End Site
                    {
                      OFFSET 0.576659977 -0.0 -0.0
                    }
                  }
                }
                JOINT LThumb
                {
                  OFFSET 0.0 0.0 0.0
                  CHANNELS 3 Zrotation Yrotation Xrotation
                  End Site
                  {
                    OFFSET 0.585470021 -0.0 0.585470021
                  }
                }
              }
            }
          }
        }
        JOINT RightShoulder
        {
          OFFSET 0.0 0.0 0.0
          CHANNELS 3 Zrotation Yrotation Xrotation
          JOINT RightArm
          {
            OFFSET -3.136600018 1.374050021 -0.404650003
            CHANNELS 3 Zrotation Yrotation Xrotation
            JOINT RightForeArm
            {
              OFFSET -5.241899967 -0.0 -0.0
              CHANNELS 3 Zrotation Yrotation Xrotation
              JOINT RightHand
              {
                OFFSET -3.444169998 -0.0 -0.0
                CHANNELS 3 Zrotation Yrotation Xrotation
                JOINT RightFingerBase
                {
                  OFFSET 0.0 0.0 0.0
                  CHANNELS 3 Zrotation Yrotation Xrotation
                  JOINT RightHandIndex1
                  {
                    OFFSET -0.622529984 -0.0 -0.0
                    CHANNELS 3 Zrotation Yrotation Xrotation
                    End Site
                    {
                      OFFSET -0.501900017 -0.0 -0.0
                    }
                  }
                }
                JOINT RThumb
                {
                  OFFSET 0.0 0.0 0.0
                  CHANNELS 3 Zrotation Yrotation Xrotation
                  End Site
                  {
                    OFFSET -0.509559989 -0.0 0.509559989
                  }
                }
              }
            }
          }
        }
      }
    }
  }
}
MOTION
Frames: 5
Frame Time: 0.0083333
-18.859300613 27.162500381 -9.374400139 102.151748657 -73.441162109 -139.942962646 -131.268997192 -0.890231431 -58.667835236 20.02910614 3.455952883 99.822746277 -6.527e-06 6.1869e-05 -96.557762146 177.736419678 2.093259096 -85.550308228 0.788540304 4.283966541 -2.039355278 132.275405884 -0.065511771 -60.897190094 22.359291077 -35.888889313 74.342887878 3.054e-06 -2.924e-05 -28.642406464 -177.639038086 30.686267853 -84.334999084 4.95917654 -6.144814968 13.14324379 -3.116852045 2.004335403 30.005882263 3.014724255 -0.000753028 16.872549057 6.809058666 1.086632609 -2.745991468 -4.862585545 -5.387898922 4.085818768 0.614868224 -6.274942875 12.152399063 4.138930321 -4.165363789 9.123411179 -70.274932861 -5.880146027 1.596463084 -94.334785461 62.043922424 -29.126422882 12.546847343 -63.046607971 70.549850464 90.0 -35.657897949 0.0 -30.147417068 12.579094887 67.579284668 -7.124996185 0.0 0.0 -15.422172546 25.995010376 66.940345764 66.170303345 7.95058012 1.248411179 78.504898071 -50.387329102 -6.47501421 -16.595623016 57.018360138 62.288124084 -90.0 12.300797462 0.0 56.591365814 2.588511944 -5.934147835 7.124996185 -0.0 0.0 87.060127258 -18.636943817 -41.373638153 
-18.860601425 22.188800812 -9.245100975 -3.595728874 -6.942706585 -0.590586424 -131.268997192 -0.890231431 -58.667835236 -48.52180481 -16.503665924 59.82667923 3.0265e-05 -6.799e-06 -31.206684113 -168.32244873 -17.559041977 -125.133522034 7.665784359 8.903648376 -21.335222244 132.275405884 -0.065511771 -60.897190094 43.269134521 -4.802187443 62.244941711 -1.63e-05 -6.493e-06 -35.25 170.351959229 42.108524323 -113.217849731 -1.622516394 -4.546679974 -4.196538925 1.589392185 0.857696414 5.034249306 2.710374832 1.19582808 4.957395554 3.530611038 0.975206971 -3.908312082 -4.86649704 -3.20524025 -3.918481588 0.94918406 -3.264563322 -4.456709385 4.647901058 -2.297895432 5.1717062 -70.274932861 -5.880146027 1.596463084 -108.729537964 -35.869258881 0.935587466 9.656140327 -4.612957954 17.173131943 90.0 -2.679499626 0.0 -67.218513489 8.239330292 8.038326263 -7.124996185 0.0 0.0 -96.9637146 40.587364197 -36.648078918 66.170303345 7.95058012 1.248411179 109.627410889 31.632902145 2.47027421 -8.651892662 3.636017561 15.299575806 -90.0 -1.003000021 0.0 74.37310791 21.088659286 -10.884432793 7.124996185 -0.0 0.0 98.144699097 21.361829758 -39.194599152 
-18.86700058 22.139299393 -9.118900299 -4.041465759 -6.753831387 -0.359879464 -131.268997192 -0.890231431 -58.667835236 -48.813205719 -17.814788818 59.599002838 -7.17e-07 3.3924e-05 -31.567827225 -168.204803467 -16.895523071 -125.785232544 7.504706383 8.677426338 -20.807291031 132.275405884 -0.065511771 -60.897190094 43.555057526 -5.500984669 61.826797485 -5.0435e-05 -1.7417e-05 -35.466781616 170.254272461 42.822273254 -113.295303345 -0.862026632 -4.416198254 -2.225274324 2.166576624 0.975026786 4.909142494 2.596819878 1.474873424 5.182936668 3.028837442 1.051271439 -3.581206083 -4.271688938 -3.436110258 -4.427509308 1.038570166 -3.64211297 -4.763656616 4.529007912 -2.444696665 5.164759636 -70.274932861 -5.880146027 1.596463084 -107.709648132 -35.343002319 -0.493934482 9.572666168 -4.526272297 17.016231537 90.0 -2.944399834 0.0 -67.094055176 8.597872734 8.425681114 -7.124996185 0.0 0.0 -96.734230042 41.367149353 -36.107131958 66.170303345 7.95058012 1.248411179 110.399261475 30.498762131 3.731851816 -8.388961792 3.403429985 14.814595222 -89.999992371 0.671599925 1.07e-07 74.346580505 19.308525085 -10.222489357 7.124996185 -0.0 0.0 97.877906799 18.510906219 -40.659038544 
-18.873701096 21.915100098 -8.981599808 -3.811926126 -6.319545269 0.066932186 -131.268997192 -0.890231431 -58.667835236 -49.290847778 -17.215242386 59.149139404 1.5998e-05 -4.3121e-05 -32.194061279 -168.206542969 -16.950237274 -125.781455994 7.8684268 9.20059967 -22.009971619 132.275405884 -0.065511771 -60.897190094 44.373085022 -4.105050087 60.918647766 -5.7891e-05 2.1e-08 -36.47177887 169.963882446 43.199523926 -113.982643127 -1.050045371 -4.441001415 -2.71158886 1.967802048 0.873125196 4.557193756 2.493890762 1.270889044 5.342294216 3.090076685 0.932956815 -3.221523762 -4.52908802 -3.432980299 -4.893795967 1.433845162 -3.476224422 -4.893247128 4.700192451 -2.406467676 5.214285374 -70.274932861 -5.880146027 1.596463084 -108.643783569 -34.595405579 -0.08273866 9.696198463 -4.654961109 17.248710632 90.0 -2.809100151 0.0 -66.556427002 9.006267548 9.101388931 -7.124996185 0.0 0.0 -95.900993347 42.574638367 -34.898361206 66.170303345 7.95058012 1.248411179 109.695159912 28.53635025 4.598884583 -7.535803318 2.710736752 13.254841805 -90.0 6.900499344 0.0 73.792320251 19.067045212 -10.537211418 7.124996185 -0.0 0.0 97.459228516 18.163597107 -40.858989716 
-18.881000519 22.006299973 -8.850099564 -4.060161114 -6.461624146 -0.075944424 -131.268997192 -0.890231431 -58.667835236 -49.169406891 -17.889642715 59.097930908 -2.351e-06 3.9037e-05 -32.113887787 -168.158538818 -16.777181625 -126.070236206 7.740448475 9.011382103 -21.582357407 132.275405884 -0.065511771 -60.897190094 44.162914276 -4.92215395 61.144454956 6.881e-06 -5.76e-06 -36.085884094 170.056060791 43.368923187 -113.682739258 -0.748266339 -4.403654099 -1.931319475 2.275500059 0.928392112 4.486660957 2.55524826 1.385328889 5.491120338 2.955784321 0.978096247 -3.018782377 -4.559270382 -3.489854097 -4.967813015 1.522687554 -3.524188042 -5.068863392 4.724960327 -2.433176517 5.178304195 -70.274932861 -5.880146027 1.596463084 -108.116722107 -34.525974274 -0.595970869 9.584334373 -4.538281441 17.038097382 89.999992371 -2.964400053 0.0 -66.606689453 8.998418808 9.064557076 -7.124996185 0.0 0.0 -95.973693848 42.518444061 -34.980392456 66.170303345 7.95058012 1.248411179 109.961433411 28.699991226 4.560703278 -7.743195057 2.870701551 13.632078171 -90.0 5.037599087 0.0 74.082824707 18.312227249 -10.00804615 7.124996185 -0.0 0.0 97.617256165 16.869655609 -41.415187836 
